<svg width="511" height="361" viewBox="0 0 511 361" fill="none" xmlns="http://www.w3.org/2000/svg">
<g clip-path="url(#clip0)">
<path d="M38.2254 125.763C38.016 125.134 37.8065 124.505 37.7018 123.876C35.8694 112.61 27.2308 49.2043 75.0836 27.8769C98.6435 17.3966 125.345 0.104095 211.731 32.069C313.667 69.798 380.315 5.86826 396.022 5.86826C411.729 5.86826 447.33 -17.1884 489.214 27.8769C531.099 72.9421 499.686 127.44 499.686 127.44C499.686 127.44 479.79 178.793 486.073 204.994C492.356 231.195 499.686 252.155 497.591 260.539C495.497 268.924 494.45 325.517 459.895 338.094C425.341 350.67 436.859 348.574 356.232 344.382C275.605 340.19 233.72 351.718 216.967 358.006C200.213 364.294 175.082 362.198 130.057 331.805C85.0311 301.412 74.56 310.845 51.5237 297.22C28.4873 283.596 -30.046 208.243 19.0633 153.64C38.0683 132.575 38.6966 127.073 38.2254 125.763Z" fill="#D7ECFF"/>
<path d="M102.413 100.925C111.116 100.925 118.172 93.8636 118.172 85.1525C118.172 76.4414 111.116 69.3797 102.413 69.3797C93.7096 69.3797 86.6541 76.4414 86.6541 85.1525C86.6541 93.8636 93.7096 100.925 102.413 100.925Z" fill="white"/>
<path d="M119.481 95.8417C125.409 95.8417 130.214 91.0322 130.214 85.0994C130.214 79.1666 125.409 74.3571 119.481 74.3571C113.554 74.3571 108.749 79.1666 108.749 85.0994C108.749 91.0322 113.554 95.8417 119.481 95.8417Z" fill="white"/>
<path d="M84.4553 93.5366C89.2263 93.5366 93.0939 89.6655 93.0939 84.8904C93.0939 80.1152 89.2263 76.2441 84.4553 76.2441C79.6843 76.2441 75.8167 80.1152 75.8167 84.8904C75.8167 89.6655 79.6843 93.5366 84.4553 93.5366Z" fill="white"/>
<path d="M411.31 75.9299C420.013 75.9299 427.069 68.8682 427.069 60.1571C427.069 51.446 420.013 44.3842 411.31 44.3842C402.607 44.3842 395.551 51.446 395.551 60.1571C395.551 68.8682 402.607 75.9299 411.31 75.9299Z" fill="white"/>
<path d="M428.431 70.8462C434.358 70.8462 439.163 66.0367 439.163 60.1039C439.163 54.1711 434.358 49.3616 428.431 49.3616C422.503 49.3616 417.698 54.1711 417.698 60.1039C417.698 66.0367 422.503 70.8462 428.431 70.8462Z" fill="white"/>
<path d="M393.352 68.5411C398.123 68.5411 401.991 64.67 401.991 59.8948C401.991 55.1197 398.123 51.2486 393.352 51.2486C388.581 51.2486 384.713 55.1197 384.713 59.8948C384.713 64.67 388.581 68.5411 393.352 68.5411Z" fill="white"/>
<path d="M240.422 130.898C249.125 130.898 256.181 123.837 256.181 115.125C256.181 106.414 249.125 99.3526 240.422 99.3526C231.718 99.3526 224.663 106.414 224.663 115.125C224.663 123.837 231.718 130.898 240.422 130.898Z" fill="white"/>
<path d="M267.4 119.152C269.669 113.67 267.068 107.386 261.591 105.116C256.115 102.845 249.836 105.448 247.568 110.93C245.299 116.411 247.9 122.695 253.377 124.965C258.853 127.236 265.132 124.633 267.4 119.152Z" fill="white"/>
<path d="M222.464 123.457C227.235 123.457 231.102 119.586 231.102 114.811C231.102 110.036 227.235 106.165 222.464 106.165C217.693 106.165 213.825 110.036 213.825 114.811C213.825 119.586 217.693 123.457 222.464 123.457Z" fill="white"/>
<path d="M12.2571 254.252C12.2571 254.252 22.2046 239.58 23.2517 237.484C24.2988 235.388 23.7753 227.003 23.7753 227.003H20.1104C20.1104 227.003 23.2517 218.095 32.1521 218.095C41.0525 218.095 43.6703 222.287 44.7174 224.383C45.7645 226.479 45.241 227.527 45.241 227.527H42.0996V235.912L57.2827 261.064H63.5653V301.937C63.5653 301.937 26.393 282.549 12.2571 254.252Z" fill="#BAC6F2"/>
<path d="M47.3352 291.457H54.665V280.977C54.665 280.977 51.0001 275.212 47.3352 280.977V291.457Z" fill="white"/>
<path d="M49.6388 270.182C52.1833 270.182 54.246 268.118 54.246 265.571C54.246 263.024 52.1833 260.96 49.6388 260.96C47.0942 260.96 45.0315 263.024 45.0315 265.571C45.0315 268.118 47.0942 270.182 49.6388 270.182Z" fill="#E9EDFA"/>
<path d="M15.2937 259.964C17.3879 258.497 20.2675 258.968 21.7334 261.065C23.1994 263.108 22.7282 265.938 20.7387 267.457" fill="#E9EDFA"/>
<path d="M33.0941 249.17C35.6386 249.17 37.7014 247.105 37.7014 244.558C37.7014 242.011 35.6386 239.947 33.0941 239.947C30.5496 239.947 28.4868 242.011 28.4868 244.558C28.4868 247.105 30.5496 249.17 33.0941 249.17Z" fill="#E9EDFA"/>
<path d="M25.3983 261.85C25.3983 260.645 25.8695 259.492 26.6025 258.601C28.0684 256.767 30.2673 255.667 32.6233 255.562C37.4924 255.457 39.639 259.544 39.9531 261.221C40.4243 263.736 40.3196 276.522 40.3196 276.522L28.9061 276.47L25.3459 272.697L25.3983 261.85Z" fill="white"/>
<path d="M62.3618 244.924L63.566 301.989C63.566 301.989 85.1364 310.059 94.2462 311.946C103.356 313.832 124.508 325.937 124.508 325.937L124.141 245.134L62.3618 244.715" fill="#E9EDFA"/>
<path d="M61.9427 244.924L124.193 245.186L123.931 230.304H105.502C105.502 230.304 103.199 221.396 94.6125 221.396C84.0891 221.396 82.309 230.776 82.309 230.776L61.8904 230.566L61.9427 244.924Z" fill="#BAC6F2"/>
<path d="M79.5337 253.362H68.5391V265.309H79.5337V253.362Z" fill="#BAC6F2"/>
<path d="M99.4289 253.204H88.4343V265.151H99.4289V253.204Z" fill="#BAC6F2"/>
<path d="M119.062 253.362H108.068V265.309H119.062V253.362Z" fill="white"/>
<path d="M119.22 275.842H108.225V287.789H119.22V275.842Z" fill="#BAC6F2"/>
<path d="M119.376 301.989H108.382V313.937H119.376V301.989Z" fill="#BAC6F2"/>
<path d="M98.9575 275.526H87.9629V287.474H98.9575V275.526Z" fill="#BAC6F2"/>
<path d="M98.9575 275.526H87.9629V287.474H98.9575V275.526Z" fill="white"/>
<path d="M79.5869 276.05H68.5923V287.998H79.5869V276.05Z" fill="#BAC6F2"/>
<path d="M68.8535 303.771L68.7488 300.26L79.4293 300.47L79.4816 307.491C79.4816 307.544 71.576 304.924 68.8535 303.771Z" fill="#BAC6F2"/>
<path d="M88.5914 310.374L88.4343 301.465L99.2719 301.675L99.0101 313.308L88.5914 310.374Z" fill="#BAC6F2"/>
<path d="M94.0361 238.95C97.3903 238.95 100.109 236.229 100.109 232.872C100.109 229.515 97.3903 226.793 94.0361 226.793C90.682 226.793 87.9629 229.515 87.9629 232.872C87.9629 236.229 90.682 238.95 94.0361 238.95Z" fill="white"/>
<path d="M123.984 284.959L124.507 325.989C124.507 325.989 157.125 347.684 159.166 349.256C161.208 350.828 178.276 359.107 186.025 359.579L187.438 276.837L182.831 276.68L160.423 248.854L152.151 248.435L123.984 284.959Z" fill="#BAC6F2"/>
<path d="M123.984 284.959L152.203 249.484L155.292 249.588L158.852 249.798L160.842 250.008L182.883 276.68L187.438 276.837V275.265L183.04 275.056L161.941 249.222L162.046 239.265L151.837 238.741L151.47 248.96L124.35 262.008L123.984 284.959Z" fill="#E9EDFA"/>
<path d="M147.02 277.257H141.889V283.283H147.02V277.257Z" fill="white"/>
<path d="M169.638 277.309H164.507V283.335H169.638V277.309Z" fill="white"/>
<path d="M161.313 277.309H156.183V283.335H161.313V277.309Z" fill="white"/>
<path d="M154.507 277.257H149.376V283.283H154.507V277.257Z" fill="white"/>
<path d="M147.02 286.427H141.889V292.453H147.02V286.427Z" fill="white"/>
<path d="M169.638 286.479H164.507V292.505H169.638V286.479Z" fill="white"/>
<path d="M161.313 286.479H156.183V292.505H161.313V286.479Z" fill="white"/>
<path d="M154.507 286.427H149.376V292.453H154.507V286.427Z" fill="white"/>
<path d="M134.874 313.57H129.743V319.596H134.874V313.57Z" fill="white"/>
<path d="M141.522 306.654H136.392V312.68H141.522V306.654Z" fill="white"/>
<path d="M134.716 306.601H129.585V312.628H134.716V306.601Z" fill="white"/>
<path d="M141.575 313.623H136.444V319.65H141.575V313.623Z" fill="white"/>
<path d="M154.978 313.728H149.848V319.754H154.978V313.728Z" fill="white"/>
<path d="M161.627 306.811H156.496V312.837H161.627V306.811Z" fill="white"/>
<path d="M154.821 306.758H149.69V312.784H154.821V306.758Z" fill="white"/>
<path d="M161.679 313.78H156.549V319.806H161.679V313.78Z" fill="white"/>
<path d="M174.402 313.885H169.271V319.912H174.402V313.885Z" fill="white"/>
<path d="M181.051 306.968H175.92V312.994H181.051V306.968Z" fill="white"/>
<path d="M174.245 306.968H169.114V312.994H174.245V306.968Z" fill="white"/>
<path d="M181.155 313.99H176.025V320.016H181.155V313.99Z" fill="white"/>
<path d="M174.141 343.23H169.01V351.771H174.141V343.23Z" fill="white"/>
<path d="M180.789 336.312H175.658V342.339H180.789V336.312Z" fill="white"/>
<path d="M173.983 336.26H168.852V342.286H173.983V336.26Z" fill="white"/>
<path d="M160.633 336.156H155.502V342.182H160.633V336.156Z" fill="white"/>
<path d="M160.685 350.147L155.554 346.793L155.502 343.492H160.633L160.685 350.147Z" fill="white"/>
<path d="M153.826 336.104H148.695V342.13H153.826V336.104Z" fill="white"/>
<path d="M153.773 345.536L152.464 344.645L150.318 343.23H153.773V345.536Z" fill="white"/>
<path d="M180.894 343.282H175.763V351.824H180.894V343.282Z" fill="white"/>
<path d="M214.035 222.182H223.668L223.511 217.466L213.877 217.361L214.035 222.182Z" fill="#BAC6F2"/>
<path d="M187.019 266.462L186.077 359.579C186.077 359.579 202.674 362.147 217.647 358.374C232.621 354.601 249.898 350.514 249.898 350.514L250.474 267.352L240.422 262.427L224.087 233.449L223.668 222.13H213.982L213.668 233.449L196.496 261.85L187.019 266.462Z" fill="#E9EDFA"/>
<path d="M218.223 274.426H211.888V282.339H218.223V274.426Z" fill="#BAC6F2"/>
<path d="M227.228 274.584H220.474V282.339H227.228V274.584Z" fill="#BAC6F2"/>
<path d="M218.066 283.806H211.731V291.719H218.066V283.806Z" fill="#BAC6F2"/>
<path d="M227.071 283.964H220.318V291.719H227.071V283.964Z" fill="#BAC6F2"/>
<path d="M218.328 302.671H211.993V310.584H218.328V302.671Z" fill="#BAC6F2"/>
<path d="M203.407 302.619H197.072V310.531H203.407V302.619Z" fill="#BAC6F2"/>
<path d="M240.893 302.933H234.558V310.846H240.893V302.933Z" fill="#BAC6F2"/>
<path d="M241.102 337.78H234.767V345.692H241.102V337.78Z" fill="#BAC6F2"/>
<path d="M203.459 337.99H197.124V345.902H203.459V337.99Z" fill="#BAC6F2"/>
<path d="M227.385 302.775H220.631V310.531H227.385V302.775Z" fill="#BAC6F2"/>
<path d="M218.171 312.051H211.836V319.963H218.171V312.051Z" fill="#BAC6F2"/>
<path d="M227.228 312.155H220.474V319.91H227.228V312.155Z" fill="#BAC6F2"/>
<path d="M218.223 336.889H211.888V344.801H218.223V336.889Z" fill="#BAC6F2"/>
<path d="M227.228 337.046H220.474V344.802H227.228V337.046Z" fill="#BAC6F2"/>
<path d="M218.066 346.269H211.731V354.182H218.066V346.269Z" fill="#BAC6F2"/>
<path d="M227.123 346.426H220.37V354.181H227.123V346.426Z" fill="#BAC6F2"/>
<path d="M200.579 287.684C203.037 287.684 205.03 285.69 205.03 283.23C205.03 280.77 203.037 278.776 200.579 278.776C198.122 278.776 196.129 280.77 196.129 283.23C196.129 285.69 198.122 287.684 200.579 287.684Z" fill="#BAC6F2"/>
<path d="M236.547 288.679C239.005 288.679 240.997 286.685 240.997 284.225C240.997 281.765 239.005 279.771 236.547 279.771C234.089 279.771 232.097 281.765 232.097 284.225C232.097 286.685 234.089 288.679 236.547 288.679Z" fill="#BAC6F2"/>
<path d="M187.019 266.461H196.705L196.548 261.745L186.862 261.64L187.019 266.461Z" fill="#BAC6F2"/>
<path d="M240.788 267.352H250.474L250.317 262.636L240.631 262.531L240.788 267.352Z" fill="#BAC6F2"/>
<path d="M219.218 264.208C223.439 264.208 226.862 260.783 226.862 256.558C226.862 252.332 223.439 248.907 219.218 248.907C214.996 248.907 211.574 252.332 211.574 256.558C211.574 260.783 214.996 264.208 219.218 264.208Z" fill="#BAC6F2"/>
<path d="M246.494 267.718L247.07 307.91C247.07 307.91 248.536 350.984 248.693 350.827C252.149 347.264 305.289 343.648 311.415 343.491L310.001 259.648L305.394 259.491L282.934 231.614L274.662 231.194L246.494 267.718Z" fill="#BAC6F2"/>
<path d="M246.494 267.719L274.662 232.295L277.803 232.4L281.363 232.61L283.3 232.819L305.342 259.439L309.949 259.649V258.024L305.551 257.867L284.4 232.033L284.557 222.025L274.347 221.501L273.929 231.719L246.494 262.583V267.719Z" fill="#E9EDFA"/>
<path d="M269.531 260.068H264.4V266.094H269.531V260.068Z" fill="white"/>
<path d="M292.149 260.121H287.018V266.147H292.149V260.121Z" fill="white"/>
<path d="M283.824 260.068H278.693V266.094H283.824V260.068Z" fill="white"/>
<path d="M277.018 260.016H271.887V266.042H277.018V260.016Z" fill="white"/>
<path d="M269.531 269.238H264.4V275.264H269.531V269.238Z" fill="white"/>
<path d="M292.149 269.29H287.018V275.317H292.149V269.29Z" fill="white"/>
<path d="M283.824 269.238H278.693V275.264H283.824V269.238Z" fill="white"/>
<path d="M277.018 269.238H271.887V275.264H277.018V269.238Z" fill="white"/>
<path d="M257.489 300.68H252.358V306.706H257.489V300.68Z" fill="white"/>
<path d="M264.139 293.762H259.008V299.788H264.139V293.762Z" fill="white"/>
<path d="M257.332 293.71H252.202V299.736H257.332V293.71Z" fill="white"/>
<path d="M264.191 300.732H259.06V306.758H264.191V300.732Z" fill="white"/>
<path d="M277.541 300.784H272.411V306.81H277.541V300.784Z" fill="white"/>
<path d="M284.242 293.92H279.111V299.946H284.242V293.92Z" fill="white"/>
<path d="M277.384 293.867H272.253V299.894H277.384V293.867Z" fill="white"/>
<path d="M284.295 300.888H279.165V306.915H284.295V300.888Z" fill="white"/>
<path d="M297.017 300.994H291.886V307.02H297.017V300.994Z" fill="white"/>
<path d="M303.666 294.076H298.535V300.102H303.666V294.076Z" fill="white"/>
<path d="M296.86 294.076H291.729V300.102H296.86V294.076Z" fill="white"/>
<path d="M303.719 301.046H298.588V307.072H303.719V301.046Z" fill="white"/>
<path d="M257.594 326.985H252.463V333.011H257.594V326.985Z" fill="white"/>
<path d="M264.243 320.067H259.112V326.094H264.243V320.067Z" fill="white"/>
<path d="M257.437 320.067H252.306V326.094H257.437V320.067Z" fill="white"/>
<path d="M264.347 327.037H259.216V333.063H264.347V327.037Z" fill="white"/>
<path d="M277.698 327.141H272.567V333.168H277.698V327.141Z" fill="white"/>
<path d="M284.348 320.225H279.217V326.251H284.348V320.225Z" fill="white"/>
<path d="M277.541 320.173H272.411V326.199H277.541V320.173Z" fill="white"/>
<path d="M284.452 327.195H279.321V333.221H284.452V327.195Z" fill="white"/>
<path d="M297.175 327.351H292.044V333.377H297.175V327.351Z" fill="white"/>
<path d="M303.823 320.435H298.693V326.461H303.823V320.435Z" fill="white"/>
<path d="M297.017 320.383H291.886V326.409H297.017V320.383Z" fill="white"/>
<path d="M303.876 327.403H298.745V333.43H303.876V327.403Z" fill="white"/>
<path d="M315.918 248.592C315.918 248.592 329.478 227.003 330.525 224.907C331.572 222.811 331.049 214.427 331.049 214.427H327.384C327.384 214.427 330.525 205.518 339.426 205.518C348.326 205.518 350.944 209.711 351.991 211.807C353.038 213.903 352.514 214.951 352.514 214.951H349.373V223.335L364.556 248.488H370.839L372.881 345.378C372.881 345.378 313.143 342.601 311.887 343.439C311.468 343.701 311.52 340.976 311.468 340.505C311.206 338.461 308.955 264.365 310.107 248.697C310.107 248.697 315.97 248.592 315.918 248.592Z" fill="#E9EDFA"/>
<path d="M354.347 279.142H361.676V268.662C361.676 268.662 358.012 262.898 354.347 268.662V279.142Z" fill="white"/>
<path d="M319.164 279.98H326.494V269.5C326.494 269.5 322.829 263.736 319.164 269.5V279.98Z" fill="white"/>
<path d="M319.164 307.073H326.494V296.592C326.494 296.592 322.829 290.828 319.164 296.592V307.073Z" fill="white"/>
<path d="M336.651 307.387H343.981V296.907C343.981 296.907 340.316 291.142 336.651 296.907V307.387Z" fill="white"/>
<path d="M354.137 307.701H361.467V297.221C361.467 297.221 357.802 291.457 354.137 297.221V307.701Z" fill="white"/>
<path d="M319.583 332.958H326.912V322.478C326.912 322.478 323.247 316.714 319.583 322.478V332.958Z" fill="white"/>
<path d="M337.122 333.274H344.452V322.793C344.452 322.793 340.787 317.029 337.122 322.793V333.274Z" fill="white"/>
<path d="M354.608 333.588H361.938V323.107C361.938 323.107 358.273 317.343 354.608 323.107V333.588Z" fill="white"/>
<path d="M356.65 257.816C359.195 257.816 361.258 255.751 361.258 253.204C361.258 250.657 359.195 248.593 356.65 248.593C354.106 248.593 352.043 250.657 352.043 253.204C352.043 255.751 354.106 257.816 356.65 257.816Z" fill="#E9EDFA"/>
<path d="M323.562 257.134C326.107 257.134 328.169 255.069 328.169 252.523C328.169 249.976 326.107 247.911 323.562 247.911C321.018 247.911 318.955 249.976 318.955 252.523C318.955 255.069 321.018 257.134 323.562 257.134Z" fill="#E9EDFA"/>
<path d="M340.473 279.981C343.017 279.981 345.08 277.916 345.08 275.369C345.08 272.822 343.017 270.758 340.473 270.758C337.928 270.758 335.865 272.822 335.865 275.369C335.865 277.916 337.928 279.981 340.473 279.981Z" fill="#E9EDFA"/>
<path d="M340.106 236.855C342.65 236.855 344.713 234.79 344.713 232.244C344.713 229.697 342.65 227.632 340.106 227.632C337.561 227.632 335.499 229.697 335.499 232.244C335.499 234.79 337.561 236.855 340.106 236.855Z" fill="#E9EDFA"/>
<path d="M332.41 249.483C332.41 248.278 332.881 247.125 333.614 246.234C335.08 244.4 337.279 243.3 339.582 243.195C344.451 243.09 346.598 247.177 346.86 248.854C347.331 251.37 347.226 264.156 347.226 264.156H332.2L332.305 260.383L332.41 249.483Z" fill="white"/>
<path d="M371.101 266.829L372.672 345.536C372.672 345.536 389.897 345.693 400.473 347.003C409.687 348.156 431.886 347.108 431.886 347.108L432.933 267.091L371.154 266.672" fill="#BAC6F2"/>
<path d="M370.682 266.829L432.933 267.091L432.671 252.208H414.242C414.242 252.208 411.938 243.3 403.352 243.3C392.829 243.3 391.048 252.68 391.048 252.68L370.63 252.47L370.682 266.829Z" fill="#BAC6F2"/>
<path d="M388.221 275.266H377.227V287.213H388.221V275.266Z" fill="white"/>
<path d="M408.116 275.108H397.122V287.056H408.116V275.108Z" fill="white"/>
<path d="M427.75 275.266H416.755V287.213H427.75V275.266Z" fill="white"/>
<path d="M427.906 297.746H416.912V309.693H427.906V297.746Z" fill="white"/>
<path d="M428.063 323.893H417.069V335.841H428.063V323.893Z" fill="white"/>
<path d="M408.116 323.422H397.122V335.369H408.116V323.422Z" fill="white"/>
<path d="M388.221 323.16H377.227V335.107H388.221V323.16Z" fill="white"/>
<path d="M407.697 297.378H396.702V309.326H407.697V297.378Z" fill="white"/>
<path d="M407.697 297.378H396.702V309.326H407.697V297.378Z" fill="white"/>
<path d="M388.326 297.902H377.332V309.85H388.326V297.902Z" fill="white"/>
<path d="M402.724 260.854C406.078 260.854 408.797 258.133 408.797 254.776C408.797 251.419 406.078 248.697 402.724 248.697C399.369 248.697 396.65 251.419 396.65 254.776C396.65 258.133 399.369 260.854 402.724 260.854Z" fill="white"/>
<path d="M459.634 199.387H469.267L469.162 194.671L459.477 194.514L459.634 199.387Z" fill="white"/>
<path d="M432.618 243.666L431.467 347.211C431.467 347.211 452.147 341.971 465.288 335.474C477.696 329.29 483.613 315.718 485.026 313.098C485.183 312.836 485.288 312.522 485.393 312.207L492.565 290.828C492.775 290.251 492.932 289.622 492.984 289.046L496.283 267.98L497.853 258.339C497.958 257.762 497.958 257.133 497.853 256.557L496.125 245.081C496.073 244.819 495.916 244.609 495.707 244.452L486.021 239.684L469.686 210.653L469.267 199.335H459.581L459.267 210.653L442.095 239.055L432.618 243.666Z" fill="#E9EDFA"/>
<path d="M463.822 251.631H457.487V259.544H463.822V251.631Z" fill="white"/>
<path d="M472.827 251.789H466.073V259.544H472.827V251.789Z" fill="white"/>
<path d="M463.665 261.011H457.331V268.923H463.665V261.011Z" fill="white"/>
<path d="M472.671 261.168H465.917V268.924H472.671V261.168Z" fill="white"/>
<path d="M463.927 279.823H457.592V287.736H463.927V279.823Z" fill="white"/>
<path d="M449.005 279.823H442.67V287.736H449.005V279.823Z" fill="white"/>
<path d="M486.544 280.138H480.209V288.05H486.544V280.138Z" fill="white"/>
<path d="M482.252 318.548L480.314 321.325L480.576 314.356L484.398 314.199L482.252 318.548Z" fill="white"/>
<path d="M449.058 315.194H442.723V323.107H449.058V315.194Z" fill="white"/>
<path d="M472.985 279.981H466.231V287.736H472.985V279.981Z" fill="white"/>
<path d="M463.822 289.255H457.487V297.168H463.822V289.255Z" fill="white"/>
<path d="M472.827 289.361H466.073V297.116H472.827V289.361Z" fill="white"/>
<path d="M463.822 314.094H457.487V322.007H463.822V314.094Z" fill="white"/>
<path d="M472.827 314.251H466.073V322.006H472.827V314.251Z" fill="white"/>
<path d="M463.718 323.474H457.383V331.387H463.718V323.474Z" fill="white"/>
<path d="M472.199 330.809L471.466 331.386H465.969V323.63H472.723V330.338L472.199 330.809Z" fill="white"/>
<path d="M446.179 264.888C448.636 264.888 450.629 262.894 450.629 260.434C450.629 257.974 448.636 255.98 446.179 255.98C443.721 255.98 441.729 257.974 441.729 260.434C441.729 262.894 443.721 264.888 446.179 264.888Z" fill="white"/>
<path d="M482.146 265.884C484.604 265.884 486.596 263.89 486.596 261.43C486.596 258.97 484.604 256.976 482.146 256.976C479.688 256.976 477.696 258.97 477.696 261.43C477.696 263.89 479.688 265.884 482.146 265.884Z" fill="white"/>
<path d="M432.618 243.667H442.304L442.147 238.951L432.461 238.846L432.618 243.667Z" fill="white"/>
<path d="M486.439 244.557H496.073L495.444 241.57L495.026 239.788L486.282 239.736L486.439 244.557Z" fill="white"/>
<path d="M464.817 241.413C469.039 241.413 472.461 237.988 472.461 233.762C472.461 229.537 469.039 226.112 464.817 226.112C460.595 226.112 457.173 229.537 457.173 233.762C457.173 237.988 460.595 241.413 464.817 241.413Z" fill="white"/>
<path d="M121.417 161.868L198.851 142.794C198.851 142.794 201.73 141.903 200.893 138.549L199.27 131.894L115.868 152.435L117.857 160.505C118.538 161.71 120.004 162.287 121.417 161.868Z" fill="#BAC5F4"/>
<path d="M103.46 102.078L116.391 155.003L199.636 133.676L186.443 80.0166C186.443 80.0166 186.181 76.8201 182.935 77.6585L105.449 96.7326C105.501 96.7326 101.994 97.571 103.46 102.078Z" fill="#BAC5F4"/>
<path d="M156.915 168.209L153.302 153.484L165.606 150.969L168.799 163.912L156.915 168.209Z" fill="#BAC5F4"/>
<path d="M137.177 171.509L187.857 158.985L188.537 161.553L137.805 174.025L137.177 171.509Z" fill="#BAC5F4"/>
<path d="M157.648 145.99C159.009 145.675 160.37 146.461 160.684 147.824C160.998 149.186 160.213 150.549 158.852 150.863C157.49 151.177 156.129 150.391 155.815 149.029C155.501 147.666 156.339 146.304 157.648 145.99Z" fill="white"/>
<path d="M183.77 80.1596L105.481 99.4384L118.114 150.829L196.403 131.55L183.77 80.1596Z" fill="#F8F8FF"/>
<path d="M110.056 101.082C110.736 100.925 111.417 101.344 111.574 102.026C111.731 102.707 111.312 103.388 110.632 103.545C109.951 103.703 109.271 103.283 109.113 102.602C109.009 101.973 109.428 101.24 110.056 101.082Z" fill="#FA5F5D"/>
<path d="M114.245 100.087C114.926 99.9295 115.606 100.349 115.763 101.03C115.921 101.711 115.502 102.392 114.821 102.55C114.14 102.707 113.46 102.288 113.303 101.606C113.146 100.925 113.565 100.244 114.245 100.087Z" fill="#FDBC4E"/>
<path d="M118.59 98.9856C119.271 98.8284 119.951 99.2476 120.108 99.9289C120.265 100.61 119.847 101.291 119.166 101.449C118.485 101.606 117.805 101.187 117.648 100.505C117.543 99.8765 117.962 99.1428 118.59 98.9856Z" fill="#37CD58"/>
<path d="M137.857 103.755C137.962 104.436 137.543 105.065 136.862 105.169L121.888 108.838C121.103 109.047 120.213 108.68 120.108 108.104L119.532 105.798C119.375 105.169 119.951 104.436 120.789 104.226L135.71 100.558C136.339 100.349 137.071 100.715 137.333 101.344V101.397L137.857 103.755Z" fill="url(#paint0_linear)"/>
<path d="M177.647 110.043C177.752 110.777 177.281 111.458 176.6 111.615L125.606 124.191C124.821 124.401 123.931 123.982 123.773 123.353L120.999 112.034C120.842 111.353 121.47 110.619 122.203 110.462L173.197 97.8858C173.878 97.6762 174.663 98.043 174.872 98.7766L177.647 110.043Z" fill="url(#paint1_linear)"/>
<path d="M142.935 128.854C143.092 129.536 142.673 130.217 141.993 130.374L127.961 133.833C127.124 134.042 126.286 133.623 126.129 132.994L124.611 126.811C124.454 126.13 125.082 125.396 125.815 125.239L139.741 121.833C140.37 121.623 141.103 121.99 141.364 122.671V122.723L142.935 128.854Z" fill="url(#paint2_linear)"/>
<path d="M161.208 124.348C161.365 125.029 160.946 125.71 160.265 125.867L146.234 129.326C145.396 129.535 144.559 129.116 144.402 128.487L142.883 122.304C142.726 121.623 143.355 120.889 144.088 120.732L158.014 117.326C158.642 117.116 159.375 117.483 159.637 118.164V118.217L161.208 124.348Z" fill="url(#paint3_linear)"/>
<path d="M180.056 119.684C180.161 120.418 179.689 121.099 179.009 121.256L165.082 124.662C164.349 124.924 163.564 124.505 163.302 123.824L161.784 117.641C161.627 116.855 162.203 116.173 162.936 116.069L176.862 112.662C177.543 112.453 178.38 112.82 178.59 113.553L180.056 119.684Z" fill="url(#paint4_linear)"/>
<path d="M162.098 127.859C162.045 128.121 161.888 128.331 161.627 128.436C161.574 128.436 161.574 128.436 161.47 128.279L146.129 132.051C145.868 132.314 145.344 132.261 145.292 131.999L145.239 131.789C145.187 131.527 145.554 131.161 145.868 131.056L161.208 127.283C161.47 127.283 161.679 127.44 161.784 127.65C161.784 127.702 161.784 127.702 161.941 127.702L162.098 127.859Z" fill="#E9EDFB"/>
<path d="M162.569 129.851C162.516 130.113 162.359 130.375 162.15 130.48C162.15 130.48 162.097 130.48 162.045 130.27L146.653 134.043C146.391 134.305 145.867 134.253 145.815 133.938L145.763 133.728C145.71 133.466 146.129 133.152 146.391 133.047L161.731 129.274C161.993 129.274 162.307 129.379 162.464 129.641L162.569 129.851Z" fill="#E9EDFB"/>
<path d="M163.092 131.841C163.04 132.156 162.883 132.418 162.621 132.575C162.621 132.47 162.569 132.418 162.569 132.313L147.176 136.086C146.967 136.295 146.652 136.348 146.443 136.086C146.391 136.033 146.391 135.981 146.338 135.928L146.286 135.719C146.234 135.457 146.652 135.195 146.914 135.038L162.254 131.265C162.516 131.265 162.83 131.37 162.987 131.632L163.092 131.841Z" fill="#E9EDFB"/>
<path d="M163.564 133.833C163.512 134.2 163.354 134.514 163.145 134.829L147.753 138.602C147.386 138.445 146.863 138.235 146.758 137.921L146.705 137.711C146.653 137.449 147.02 137.03 147.334 137.082L162.674 133.309C162.883 133.204 163.093 133.309 163.197 133.519C163.197 133.571 163.197 133.624 163.25 133.676C163.25 133.676 163.25 133.676 163.407 133.676L163.564 133.833Z" fill="#E9EDFB"/>
<path d="M155.553 137.972C155.606 138.234 155.501 138.391 155.187 138.444L148.119 140.173C147.805 140.225 147.386 140.225 147.334 140.016L147.281 139.806C147.229 139.544 147.595 139.23 147.857 139.177L154.925 137.448C155.187 137.396 155.449 137.553 155.501 137.815L155.553 137.972Z" fill="#E9EDFB"/>
<path d="M180.893 123.195C180.631 123.51 180.736 123.719 180.422 123.562L165.082 127.335C164.872 127.597 164.611 127.492 164.506 127.283C164.506 127.283 164.506 127.283 164.663 127.178L164.611 126.968C164.401 126.759 164.558 126.444 164.82 126.339L180.16 122.567C180.474 122.619 180.474 122.829 180.841 122.986L180.893 123.195Z" fill="#E9EDFB"/>
<path d="M181.416 125.186C181.154 125.501 181.311 125.763 180.945 125.606L165.605 129.379C165.343 129.641 165.081 129.483 165.186 129.169L165.134 128.959C164.924 128.75 165.081 128.488 165.343 128.383L180.683 124.61C180.997 124.662 180.997 124.82 181.364 124.977L181.416 125.186Z" fill="#E9EDFB"/>
<path d="M181.888 127.23C181.626 127.544 181.783 127.859 181.416 127.649L166.076 131.422C165.815 131.684 165.553 131.527 165.657 131.213L165.605 131.003C165.396 130.793 165.553 130.584 165.815 130.427L181.155 126.654C181.469 126.706 181.469 126.863 181.835 127.02L181.888 127.23Z" fill="#E9EDFB"/>
<path d="M182.359 129.221C182.097 129.536 182.254 129.902 181.992 130.217L166.652 133.99C166.286 133.78 166.024 133.57 166.076 133.204L166.024 132.994C165.919 132.942 165.867 132.732 165.919 132.575C166.024 132.522 166.076 132.418 166.233 132.47L181.626 128.697C181.888 128.54 181.94 128.854 182.306 129.011L182.359 129.221Z" fill="#E9EDFB"/>
<path d="M174.454 133.309C174.506 133.571 174.558 133.676 174.297 133.728L167.176 135.458C166.862 135.51 166.705 135.458 166.653 135.196L166.6 134.986C166.548 134.724 166.705 134.462 166.967 134.41L174.035 132.68C174.349 132.628 174.349 132.838 174.401 133.1L174.454 133.309Z" fill="#E9EDFB"/>
<path d="M143.302 132.471C143.563 132.681 143.511 132.89 143.145 132.785L127.752 136.558C127.595 136.768 127.333 136.768 127.176 136.663C127.124 136.611 127.124 136.558 127.019 136.506L126.967 136.296C127.019 135.982 127.176 135.72 127.49 135.563L142.83 131.79C143.145 131.842 143.302 131.999 143.197 132.314L143.302 132.471Z" fill="#E9EDFB"/>
<path d="M143.773 134.461C144.035 134.671 143.982 134.933 143.668 134.828L128.276 138.601C128.014 138.915 127.7 138.758 127.543 138.444L127.49 138.234C127.49 137.972 127.752 137.71 128.014 137.553L143.354 133.78C143.668 133.832 143.825 133.937 143.668 134.252L143.773 134.461Z" fill="#E9EDFB"/>
<path d="M144.296 136.506C144.558 136.715 144.558 137.03 144.192 136.873L128.799 140.646C128.537 140.96 128.223 140.803 128.066 140.488L128.014 140.279C128.014 140.017 128.276 139.807 128.537 139.597L143.878 135.825C144.192 135.877 144.349 135.982 144.192 136.296L144.296 136.506Z" fill="#E9EDFB"/>
<path d="M140.004 138.968L144.401 137.867C144.663 137.71 144.873 137.972 144.716 138.287L144.768 138.496C145.03 138.706 145.03 139.073 144.768 139.387L129.376 143.16C129.009 143.055 128.747 142.793 128.485 142.479L128.433 142.269C128.433 141.955 128.643 141.693 128.957 141.64L140.004 138.968Z" fill="#E9EDFB"/>
<path d="M137.648 142.375C137.7 142.637 137.595 142.794 137.281 142.846L129.637 144.733C129.323 144.785 129.061 144.785 129.009 144.523L128.957 144.313C128.957 144.051 129.166 143.789 129.428 143.737L137.072 141.851C137.333 141.798 137.595 141.955 137.648 142.165C137.648 142.165 137.648 142.165 137.648 142.217V142.375Z" fill="#E9EDFB"/>
<path d="M414.294 107.738L413.404 150.707C413.404 150.707 405.027 147.406 400.576 148.349L414.294 107.738Z" fill="url(#paint5_linear)"/>
<path d="M414.294 107.738L400.577 148.349C400.577 148.349 375.446 140.069 355.132 139.703L369.687 99.6678L414.294 107.738Z" fill="#FCFCFC"/>
<path d="M384.818 124.243L390.996 125.501L392.933 120.209L386.807 119.003L384.818 124.243Z" fill="#58CAEA"/>
<path d="M374.975 122.095L381.205 123.405L383.09 118.06L377.017 116.908L374.975 122.095Z" fill="#58CAEA"/>
<path d="M365.656 120.418L371.834 121.728L373.771 116.383L367.698 115.23L365.656 120.418Z" fill="#58CAEA"/>
<path d="M363.037 127.598L369.268 128.908L371.152 123.563L365.079 122.41L363.037 127.598Z" fill="#58CAEA"/>
<path d="M382.147 131.055L388.325 132.366L390.263 127.021L384.189 125.868L382.147 131.055Z" fill="#58CAEA"/>
<path d="M391.729 133.152L397.906 134.462L399.844 129.117L393.77 127.964L391.729 133.152Z" fill="#58CAEA"/>
<path d="M388.796 140.541L394.974 141.851L396.911 136.506L390.786 135.353L388.796 140.541Z" fill="#58CAEA"/>
<path d="M379.268 138.654L385.446 139.911L387.383 134.619L381.258 133.466L379.268 138.654Z" fill="#58CAEA"/>
<path d="M369.426 136.82L375.603 138.078L377.488 132.733L371.415 131.58L369.426 136.82Z" fill="#58CAEA"/>
<path d="M372.409 129.274L378.587 130.584L380.472 125.239L374.398 124.086L372.409 129.274Z" fill="url(#paint6_linear)"/>
<path d="M414.294 107.737L410.42 119.266L365.604 110.881L369.74 99.72L414.294 107.737Z" fill="url(#paint7_linear)"/>
<path d="M402.566 102.811L399.163 102.13L397.854 107.265L401.204 107.894L402.566 102.811Z" fill="url(#paint8_linear)"/>
<path d="M381.258 99.1433L378.326 98.5145L377.069 103.335L380.001 103.859L381.258 99.1433Z" fill="url(#paint9_linear)"/>
<path d="M261.783 171.301L266.338 171.615C266.338 171.615 267.961 166.323 271.835 164.96L272.673 158.934C272.673 158.934 276.547 161.921 277.437 162.34C278.327 162.759 286.966 159.93 295.552 166.952C302.777 172.873 299.898 181.1 298.798 183.563C298.641 183.982 298.327 184.401 298.013 184.768C297.228 185.606 295.709 187.231 294.924 187.807C293.877 188.593 294.715 193.833 293.458 194.096C292.516 194.253 291.207 190.113 290.264 190.27C285.186 191.266 279.898 190.689 275.134 188.698C274.82 188.541 274.453 188.646 274.244 188.96C273.72 189.746 272.725 191.161 271.992 191.475C270.998 191.947 271.521 188.017 270.736 187.283C269.898 186.55 261.155 176.436 261.155 176.436L261.783 171.301Z" fill="url(#paint10_linear)"/>
<path d="M299.531 177.328C299.531 177.328 303.615 175.179 305.29 177.432C306.966 179.686 306.39 181.624 304.767 181.939C303.562 182.148 301.939 179.895 302.934 178.742C303.929 177.59 305.395 177.066 306.861 178.376C308.327 179.633 308.746 181.939 308.693 183.144" stroke="#4B45BD" stroke-width="1.14092" stroke-miterlimit="10"/>
<path d="M271.364 174.759C272.319 174.759 273.092 173.985 273.092 173.03C273.092 172.075 272.319 171.301 271.364 171.301C270.41 171.301 269.637 172.075 269.637 173.03C269.637 173.985 270.41 174.759 271.364 174.759Z" fill="#58CAEA"/>
<path d="M279.636 163.703C279.636 163.703 286.652 162.812 290.735 165.38" stroke="#4B45BD" stroke-width="0.28523" stroke-miterlimit="10"/>
<path d="M287.175 157.834C290.934 157.834 293.982 154.784 293.982 151.022C293.982 147.26 290.934 144.21 287.175 144.21C283.416 144.21 280.369 147.26 280.369 151.022C280.369 154.784 283.416 157.834 287.175 157.834Z" fill="url(#paint11_linear)"/>
<path d="M287.123 156.576C290.188 156.576 292.673 154.09 292.673 151.022C292.673 147.954 290.188 145.467 287.123 145.467C284.058 145.467 281.573 147.954 281.573 151.022C281.573 154.09 284.058 156.576 287.123 156.576Z" stroke="url(#paint12_linear)" stroke-width="0.28523" stroke-miterlimit="10"/>
<path d="M287.068 148.605C287.085 148.473 287.054 148.356 286.973 148.254C286.894 148.151 286.75 148.049 286.541 147.946C286.249 147.812 286.043 147.661 285.923 147.493C285.804 147.324 285.761 147.125 285.792 146.895C285.823 146.66 285.917 146.477 286.073 146.345C286.231 146.214 286.431 146.15 286.674 146.154L286.737 145.684L287.057 145.727L286.993 146.199C287.229 146.264 287.402 146.39 287.512 146.577C287.623 146.764 287.659 147.004 287.62 147.297L287.225 147.244C287.252 147.042 287.226 146.876 287.146 146.744C287.067 146.612 286.945 146.535 286.782 146.513C286.612 146.49 286.476 146.517 286.374 146.594C286.272 146.669 286.211 146.785 286.189 146.942C286.17 147.088 286.201 147.211 286.284 147.311C286.368 147.409 286.514 147.509 286.722 147.61C286.931 147.71 287.09 147.811 287.2 147.913C287.312 148.014 287.389 148.125 287.431 148.246C287.474 148.366 287.485 148.503 287.465 148.654C287.432 148.896 287.333 149.08 287.167 149.208C287.003 149.336 286.788 149.395 286.523 149.387L286.468 149.797L286.15 149.754L286.206 149.344C285.943 149.284 285.747 149.161 285.618 148.976C285.49 148.79 285.445 148.556 285.483 148.272L285.88 148.326C285.853 148.525 285.885 148.685 285.975 148.806C286.065 148.928 286.205 149.001 286.397 149.027C286.584 149.053 286.737 149.027 286.857 148.952C286.976 148.876 287.047 148.761 287.068 148.605Z" fill="#58CAEA"/>
<path d="M296.652 144.262C299.139 144.262 301.155 142.244 301.155 139.755C301.155 137.266 299.139 135.248 296.652 135.248C294.165 135.248 292.149 137.266 292.149 139.755C292.149 142.244 294.165 144.262 296.652 144.262Z" fill="url(#paint13_linear)"/>
<path d="M296.652 143.423C298.676 143.423 300.317 141.78 300.317 139.755C300.317 137.729 298.676 136.087 296.652 136.087C294.628 136.087 292.987 137.729 292.987 139.755C292.987 141.78 294.628 143.423 296.652 143.423Z" stroke="url(#paint14_linear)" stroke-width="0.28523" stroke-miterlimit="10"/>
<path d="M296.705 137.543C296.717 137.456 296.696 137.379 296.643 137.312C296.59 137.244 296.496 137.177 296.358 137.109C296.166 137.021 296.03 136.922 295.951 136.811C295.873 136.7 295.845 136.569 295.865 136.417C295.886 136.263 295.948 136.142 296.051 136.056C296.154 135.969 296.286 135.927 296.446 135.929L296.487 135.62L296.698 135.649L296.656 135.959C296.811 136.002 296.925 136.085 296.997 136.208C297.071 136.331 297.094 136.489 297.068 136.682L296.809 136.647C296.827 136.514 296.809 136.405 296.757 136.318C296.704 136.231 296.624 136.181 296.517 136.166C296.405 136.151 296.316 136.169 296.248 136.219C296.181 136.268 296.141 136.345 296.127 136.448C296.114 136.544 296.135 136.625 296.189 136.691C296.244 136.756 296.34 136.822 296.477 136.888C296.615 136.954 296.72 137.02 296.792 137.087C296.866 137.154 296.916 137.227 296.944 137.306C296.972 137.386 296.98 137.476 296.966 137.575C296.945 137.734 296.88 137.856 296.771 137.94C296.662 138.024 296.521 138.063 296.346 138.058L296.31 138.327L296.101 138.299L296.137 138.029C295.965 137.99 295.836 137.909 295.751 137.787C295.666 137.665 295.637 137.51 295.662 137.324L295.923 137.359C295.906 137.49 295.926 137.596 295.986 137.675C296.045 137.755 296.137 137.804 296.263 137.821C296.387 137.838 296.488 137.821 296.566 137.771C296.645 137.722 296.691 137.645 296.705 137.543Z" fill="#58CAEA"/>
<path d="M280.37 143.737C282.134 143.737 283.563 142.306 283.563 140.541C283.563 138.775 282.134 137.344 280.37 137.344C278.606 137.344 277.176 138.775 277.176 140.541C277.176 142.306 278.606 143.737 280.37 143.737Z" fill="url(#paint15_linear)"/>
<path d="M280.369 143.16C281.815 143.16 282.987 141.987 282.987 140.54C282.987 139.093 281.815 137.92 280.369 137.92C278.924 137.92 277.752 139.093 277.752 140.54C277.752 141.987 278.924 143.16 280.369 143.16Z" stroke="url(#paint16_linear)" stroke-width="0.28523" stroke-miterlimit="10"/>
<path d="M280.328 139.531C280.337 139.469 280.322 139.414 280.284 139.365C280.247 139.317 280.179 139.269 280.08 139.22C279.943 139.157 279.846 139.086 279.789 139.007C279.733 138.928 279.713 138.834 279.728 138.725C279.742 138.615 279.787 138.529 279.86 138.467C279.934 138.405 280.029 138.375 280.143 138.376L280.173 138.155L280.323 138.175L280.293 138.398C280.404 138.428 280.486 138.488 280.538 138.576C280.59 138.664 280.607 138.777 280.589 138.915L280.403 138.89C280.416 138.795 280.403 138.716 280.366 138.654C280.328 138.592 280.271 138.556 280.194 138.546C280.114 138.535 280.05 138.547 280.002 138.583C279.954 138.619 279.925 138.674 279.915 138.748C279.906 138.816 279.92 138.874 279.959 138.921C279.999 138.968 280.068 139.015 280.165 139.062C280.264 139.109 280.339 139.157 280.391 139.205C280.444 139.252 280.48 139.305 280.499 139.362C280.52 139.418 280.525 139.483 280.516 139.554C280.5 139.668 280.453 139.755 280.375 139.815C280.298 139.875 280.197 139.903 280.072 139.899L280.046 140.092L279.896 140.072L279.922 139.879C279.799 139.851 279.706 139.793 279.646 139.706C279.585 139.618 279.564 139.508 279.582 139.374L279.769 139.4C279.757 139.493 279.771 139.568 279.814 139.626C279.856 139.683 279.922 139.717 280.013 139.73C280.101 139.742 280.173 139.73 280.229 139.694C280.285 139.659 280.319 139.604 280.328 139.531Z" fill="#58CAEA"/>
</g>
<defs>
<linearGradient id="paint0_linear" x1="119.726" y1="106.955" x2="137.521" y2="102.581" gradientUnits="userSpaceOnUse">
<stop stop-color="#F71D69"/>
<stop offset="1" stop-color="#F8C648"/>
</linearGradient>
<linearGradient id="paint1_linear" x1="122.353" y1="117.641" x2="176.246" y2="104.393" gradientUnits="userSpaceOnUse">
<stop stop-color="#4B45BD"/>
<stop offset="1" stop-color="#58CAEA"/>
</linearGradient>
<linearGradient id="paint2_linear" x1="125.354" y1="129.85" x2="142.132" y2="125.725" gradientUnits="userSpaceOnUse">
<stop stop-color="#4B45BD"/>
<stop offset="1" stop-color="#58CAEA"/>
</linearGradient>
<linearGradient id="paint3_linear" x1="143.656" y1="125.343" x2="160.434" y2="121.219" gradientUnits="userSpaceOnUse">
<stop stop-color="#4B45BD"/>
<stop offset="1" stop-color="#58CAEA"/>
</linearGradient>
<linearGradient id="paint4_linear" x1="162.466" y1="120.713" x2="179.244" y2="116.589" gradientUnits="userSpaceOnUse">
<stop stop-color="#4B45BD"/>
<stop offset="1" stop-color="#58CAEA"/>
</linearGradient>
<linearGradient id="paint5_linear" x1="417.248" y1="129.818" x2="404.426" y2="127.468" gradientUnits="userSpaceOnUse">
<stop stop-color="#4B45BD"/>
<stop offset="1" stop-color="#58CAEA"/>
</linearGradient>
<linearGradient id="paint6_linear" x1="379.927" y1="127.938" x2="372.934" y2="126.504" gradientUnits="userSpaceOnUse">
<stop stop-color="#4B45BD"/>
<stop offset="1" stop-color="#58CAEA"/>
</linearGradient>
<linearGradient id="paint7_linear" x1="413.227" y1="113.655" x2="366.675" y2="105.125" gradientUnits="userSpaceOnUse">
<stop stop-color="#4B45BD"/>
<stop offset="1" stop-color="#58CAEA"/>
</linearGradient>
<linearGradient id="paint8_linear" x1="402.102" y1="105.345" x2="398.318" y2="104.652" gradientUnits="userSpaceOnUse">
<stop stop-color="#4B45BD"/>
<stop offset="1" stop-color="#58CAEA"/>
</linearGradient>
<linearGradient id="paint9_linear" x1="380.821" y1="101.498" x2="377.55" y2="100.898" gradientUnits="userSpaceOnUse">
<stop stop-color="#4B45BD"/>
<stop offset="1" stop-color="#58CAEA"/>
</linearGradient>
<linearGradient id="paint10_linear" x1="293.9" y1="188.987" x2="265.66" y2="162.019" gradientUnits="userSpaceOnUse">
<stop stop-color="#4B45BD"/>
<stop offset="1" stop-color="#58CAEA"/>
</linearGradient>
<linearGradient id="paint11_linear" x1="276.609" y1="162.921" x2="292.054" y2="145.526" gradientUnits="userSpaceOnUse">
<stop stop-color="#4B45BD"/>
<stop offset="1" stop-color="#58CAEA"/>
</linearGradient>
<linearGradient id="paint12_linear" x1="281.326" y1="150.241" x2="292.893" y2="151.804" gradientUnits="userSpaceOnUse">
<stop stop-color="#4B45BD"/>
<stop offset="1" stop-color="#58CAEA"/>
</linearGradient>
<linearGradient id="paint13_linear" x1="289.73" y1="147.588" x2="299.897" y2="136.135" gradientUnits="userSpaceOnUse">
<stop stop-color="#4B45BD"/>
<stop offset="1" stop-color="#58CAEA"/>
</linearGradient>
<linearGradient id="paint14_linear" x1="292.759" y1="139.237" x2="300.551" y2="140.289" gradientUnits="userSpaceOnUse">
<stop stop-color="#4B45BD"/>
<stop offset="1" stop-color="#58CAEA"/>
</linearGradient>
<linearGradient id="paint15_linear" x1="275.41" y1="146.152" x2="282.688" y2="137.956" gradientUnits="userSpaceOnUse">
<stop stop-color="#4B45BD"/>
<stop offset="1" stop-color="#58CAEA"/>
</linearGradient>
<linearGradient id="paint16_linear" x1="277.487" y1="140.539" x2="283.25" y2="140.539" gradientUnits="userSpaceOnUse">
<stop stop-color="#4B45BD"/>
<stop offset="1" stop-color="#58CAEA"/>
</linearGradient>
<clipPath id="clip0">
<rect width="511" height="360.889" fill="white"/>
</clipPath>
</defs>
</svg>
